<?xml version="1.0" encoding="UTF-8" standalone="no"?>
<svg
   xmlns:dc="http://purl.org/dc/elements/1.1/"
   xmlns:cc="http://creativecommons.org/ns#"
   xmlns:rdf="http://www.w3.org/1999/02/22-rdf-syntax-ns#"
   xmlns:svg="http://www.w3.org/2000/svg"
   xmlns="http://www.w3.org/2000/svg"
   xmlns:sodipodi="http://sodipodi.sourceforge.net/DTD/sodipodi-0.dtd"
   xmlns:inkscape="http://www.inkscape.org/namespaces/inkscape"
   version="1.0"
   width="60"
   height="60"
   viewBox="0 0 48 48"
   preserveAspectRatio="xMidYMid meet"
   id="svg3047"
   inkscape:version="0.48.4 r9939"
   sodipodi:docname="icon.svg">
  <defs
     id="defs3069" />
  <sodipodi:namedview
     pagecolor="#ffffff"
     bordercolor="#666666"
     borderopacity="1"
     objecttolerance="10"
     gridtolerance="10"
     guidetolerance="10"
     inkscape:pageopacity="0"
     inkscape:pageshadow="2"
     inkscape:window-width="1366"
     inkscape:window-height="717"
     id="namedview3067"
     showgrid="false"
     inkscape:zoom="4.7199378"
     inkscape:cx="-12.32988"
     inkscape:cy="30.255427"
     inkscape:window-x="0"
     inkscape:window-y="25"
     inkscape:window-maximized="1"
     inkscape:current-layer="layer1" />
  <metadata
     id="metadata3049">
Created by potrace 1.11, written by Peter Selinger 2001-2013
<rdf:RDF>
  <cc:Work
     rdf:about="">
    <dc:format>image/svg+xml</dc:format>
    <dc:type
       rdf:resource="http://purl.org/dc/dcmitype/StillImage" />
    <dc:title></dc:title>
  </cc:Work>
</rdf:RDF>
</metadata>
  <g
     transform="matrix(0.008125,0,0,-0.008125,3.2,44.8)"
     id="g3051"
     style="fill:#d40000;stroke:none">
    <path
       d="M 0,2560 0,0 l 2560,0 2560,0 0,2560 0,2560 -2560,0 -2560,0 0,-2560 z m 2024,2215 c 174,-40 350,-176 419,-323 29,-61 32,-75 32,-163 l -1,-95 77,-45 77,-46 113,65 c 63,35 132,74 154,87 22,12 135,75 250,140 366,206 420,235 436,235 28,0 237,-108 248,-129 6,-11 11,-33 11,-49 0,-35 -16,-50 -204,-197 -71,-55 -186,-145 -255,-200 -70,-55 -153,-120 -184,-144 -32,-24 -56,-47 -55,-51 3,-7 103,-86 503,-398 82,-64 160,-128 172,-141 27,-28 30,-67 7,-99 -21,-31 -230,-135 -254,-127 -20,6 -31,13 -355,195 -283,159 -439,247 -520,291 l -70,38 -77,-46 -78,-46 6,-71 c 21,-248 -238,-489 -571,-531 -62,-8 -151,6 -230,36 -81,30 -163,112 -193,192 -39,102 -21,240 41,332 153,225 463,343 704,268 51,-16 52,-16 80,8 16,13 57,40 91,59 34,19 62,38 62,41 0,7 -119,79 -130,79 -3,0 -17,11 -29,24 -21,23 -25,23 -56,10 -62,-26 -169,-36 -245,-25 -359,56 -606,345 -522,609 39,122 148,204 312,236 41,8 161,-2 234,-19 z M 4255,2582 c 62,-29 96,-59 288,-250 120,-119 231,-235 246,-257 63,-91 61,-59 61,-944 0,-791 0,-807 -20,-839 -40,-65 5,-63 -1013,-60 l -922,3 -31,22 c -17,12 -37,35 -43,50 -8,21 -11,318 -9,1130 l 3,1101 25,27 c 51,56 33,55 715,52 l 630,-2 70,-33 z m -3097,-335 103,-102 94,98 c 106,109 131,123 182,106 46,-15 56,-34 93,-179 17,-69 33,-126 35,-128 2,-3 53,10 112,28 59,18 130,33 156,34 42,1 52,-3 73,-27 13,-15 24,-38 24,-51 0,-26 -32,-155 -56,-229 -9,-27 -14,-51 -11,-54 3,-3 57,-18 119,-33 62,-16 125,-33 139,-39 36,-13 59,-48 59,-90 0,-31 -12,-47 -105,-140 l -105,-105 105,-106 c 82,-84 105,-113 105,-134 0,-44 -30,-85 -70,-96 -19,-6 -75,-21 -125,-35 -49,-14 -98,-25 -108,-25 -23,0 -23,0 22,-151 17,-58 31,-119 31,-134 0,-29 -57,-95 -82,-95 -13,0 -236,62 -268,74 -12,5 -21,-17 -44,-101 -43,-163 -46,-172 -69,-193 -13,-13 -35,-20 -60,-20 -37,0 -47,7 -142,100 -55,55 -103,100 -106,100 -3,0 -50,-45 -105,-100 -93,-93 -103,-100 -140,-100 -44,0 -79,24 -95,68 -5,14 -21,72 -34,130 -14,57 -27,108 -30,112 -3,5 -24,3 -48,-5 -23,-7 -86,-26 -139,-40 l -97,-27 -35,21 c -57,35 -60,73 -17,213 47,151 53,136 -69,168 -58,15 -118,31 -133,34 -41,10 -77,52 -77,90 0,42 28,79 128,172 l 83,77 -106,107 c -94,96 -105,111 -105,143 0,23 8,45 23,62 22,25 41,32 228,80 l 67,17 -8,31 c -4,18 -19,72 -34,121 -39,132 -34,175 23,205 29,16 68,10 195,-29 54,-16 104,-30 111,-30 8,0 23,46 41,122 31,131 54,178 94,189 48,14 75,-2 178,-104 z"
       id="path3053"
       style="fill:#d40000"
       inkscape:connector-curvature="0" />
    <path
       d="m 1765,4565 c -44,-15 -82,-53 -91,-89 -9,-36 13,-100 49,-148 75,-98 249,-175 372,-166 75,6 120,30 153,78 86,128 -159,341 -388,340 -30,-1 -73,-7 -95,-15 z"
       id="path3055"
       style="fill:#d40000"
       inkscape:connector-curvature="0" />
    <path
       d="m 3430,4456 c -80,-46 -237,-135 -350,-198 -113,-63 -276,-155 -362,-204 l -158,-88 0,-76 0,-75 -100,-59 c -55,-32 -100,-62 -100,-65 0,-4 17,-24 39,-45 l 39,-38 78,48 c 44,26 90,55 104,64 24,16 28,16 90,-5 l 65,-22 60,47 c 181,141 638,498 750,587 72,56 139,109 149,116 17,13 12,17 -67,55 -47,23 -87,42 -89,41 -2,-1 -68,-38 -148,-83 z m -632,-538 c 31,-29 30,-81 -3,-113 -55,-56 -145,-19 -145,59 0,32 26,66 60,79 23,9 63,-2 88,-25 z"
       id="path3057"
       style="fill:#d40000"
       inkscape:connector-curvature="0" />
    <path
       d="m 2955,3724 c -153,-118 -146,-106 -83,-141 49,-28 322,-181 588,-331 63,-35 120,-64 125,-64 6,-1 45,17 88,39 l 77,39 -67,54 c -38,29 -183,143 -323,253 -140,110 -264,208 -275,218 -20,17 -23,16 -130,-67 z"
       id="path3059"
       style="fill:#d40000"
       inkscape:connector-curvature="0" />
    <path
       d="m 1959,3546 c -116,-33 -225,-116 -265,-201 -28,-60 -29,-76 -7,-122 37,-79 174,-105 306,-58 143,50 228,121 263,221 17,50 17,52 -3,90 -30,57 -71,77 -167,81 -46,1 -101,-3 -127,-11 z"
       id="path3061"
       style="fill:#d40000"
       inkscape:connector-curvature="0" />
    <path
       d="m 2980,1425 0,-1015 850,0 850,0 0,674 0,675 -297,3 c -273,3 -300,5 -326,22 -55,37 -57,49 -57,366 l 0,290 -510,0 -510,0 0,-1015 z"
       id="path3063"
       style="fill:#d40000"
       inkscape:connector-curvature="0" />
    <path
       d="m 4170,2185 0,-245 250,0 c 236,0 250,1 241,18 -16,28 -466,472 -479,472 -9,0 -12,-61 -12,-245 z"
       id="path3065"
       style="fill:#d40000"
       inkscape:connector-curvature="0" />
  </g>
  <g
     inkscape:groupmode="layer"
     id="layer1"
     inkscape:label="Capa"
     style="display:inline">
    <path
       style="fill:#f9f9f9"
       d="m 37.767216,53.479773 c -3.655952,-0.04852 -4.391243,-0.111471 -4.714045,-0.403602 -0.359573,-0.325409 -0.382458,-1.020851 -0.382458,-11.622237 0,-10.225316 0.03261,-11.303213 0.349973,-11.566892 0.275674,-0.229045 1.714327,-0.304449 6.776598,-0.355179 5.761433,-0.05774 6.509188,-0.02601 7.22428,0.306489 1.017659,0.473188 5.730772,5.222233 5.91629,5.961394 0.07686,0.30625 0.148368,4.25171 0.158898,8.767687 0.01641,7.037341 -0.02628,8.255035 -0.298655,8.519886 -0.35046,0.340772 -6.610028,0.50421 -15.030881,0.392454 l 0,0 z m 13.921473,-8.470168 -0.05586,-6.938651 -3.072075,-0.05434 c -3.986246,-0.07051 -3.813609,0.105527 -3.813609,-3.888678 l 0,-2.942669 -5.29668,0 -5.29668,0 0,10.381493 0,10.381492 8.795383,0 8.795384,0 -0.05586,-6.93865 z m -0.618661,-8.666379 c 0.455591,-0.121976 0.290812,-0.3392 -1.998206,-2.634197 -1.372108,-1.375693 -2.572787,-2.453025 -2.668175,-2.394072 -0.09539,0.05895 -0.173433,1.245644 -0.173433,2.63709 l 0,2.529903 2.171639,-0.0029 c 1.194401,-0.0016 2.39508,-0.06271 2.668175,-0.135831 z"
       id="path3840"
       inkscape:connector-curvature="0"
       transform="scale(0.8,0.8)" />
    <path
       style="fill:#f9f9f9"
       d="m 13.648107,52.319023 c -0.12007,-0.145659 -0.363461,-0.822297 -0.540869,-1.50364 -0.177407,-0.681343 -0.353027,-1.266722 -0.390267,-1.300841 -0.03724,-0.03412 -0.709301,0.106251 -1.493469,0.311935 -1.8510498,0.485522 -2.209491,0.289907 -1.9733775,-1.076948 0.088612,-0.512976 0.1746176,-1.2595 0.191122,-1.658943 0.029308,-0.709296 0.00283,-0.733193 -1.1337829,-1.023159 -2.0590073,-0.525282 -2.1763414,-0.97181 -0.650325,-2.47488 L 8.7032294,42.562186 7.63866,41.338224 C 7.004547,40.609169 6.6029794,39.958163 6.645536,39.72821 c 0.047796,-0.258265 0.4922269,-0.529637 1.3426486,-0.819829 0.6991617,-0.238577 1.3927533,-0.477719 1.5413146,-0.531427 0.2150096,-0.07773 0.2046724,-0.313393 -0.050674,-1.155228 -0.4215941,-1.389929 -0.4143222,-2.202012 0.021215,-2.369143 0.1906227,-0.07315 0.9771793,0.01858 1.7479043,0.203841 1.049576,0.25229 1.425388,0.274047 1.497209,0.08668 0.05274,-0.137588 0.291092,-0.822201 0.529668,-1.521362 0.575344,-1.686073 0.912848,-1.7278 2.366167,-0.292534 l 1.139684,1.125528 1.139685,-1.125528 c 1.59461,-1.574802 1.933958,-1.45785 2.583511,0.890371 0.2407,0.870163 0.426304,1.200777 0.630186,1.12254 0.158949,-0.06099 0.865241,-0.22992 1.569537,-0.37539 1.719394,-0.355135 1.879718,-0.194812 1.524583,1.524582 -0.14547,0.704296 -0.314395,1.410588 -0.37539,1.569538 -0.07824,0.203881 0.252377,0.389486 1.12254,0.630186 0.678391,0.187653 1.376449,0.420659 1.551239,0.517792 0.623384,0.346419 0.46111,0.999333 -0.519427,2.089926 -0.530004,0.589492 -0.963643,1.157119 -0.963643,1.261395 0,0.104276 0.429031,0.610654 0.953402,1.125286 1.442128,1.415341 1.293568,1.853186 -0.815071,2.402231 -0.681344,0.177408 -1.273709,0.357462 -1.316367,0.40012 -0.04266,0.04266 0.06081,0.597498 0.229922,1.232978 0.387101,1.454594 0.387897,1.791301 0.0051,2.174061 -0.268589,0.268588 -0.480947,0.259245 -1.6829,-0.07405 -1.582728,-0.438877 -1.617801,-0.418644 -2.035202,1.174075 -0.504475,1.924973 -0.839946,2.008912 -2.468452,0.617635 l -1.136999,-0.971369 -1.080396,0.971369 c -1.099606,0.988641 -1.657341,1.181009 -2.048462,0.706535 l 0,0 z"
       id="path3844"
       inkscape:connector-curvature="0"
       transform="scale(0.8,0.8)" />
    <path
       style="fill:#f9f9f9"
       d="m 36.85509,31.238872 c 1.427456,-0.03665 3.763292,-0.03665 5.190747,0 1.427455,0.03665 0.259537,0.06664 -2.595373,0.06664 -2.854911,0 -4.022829,-0.02999 -2.595374,-0.06664 z"
       id="path3846"
       inkscape:connector-curvature="0"
       transform="scale(0.8,0.8)" />
    <path
       style="fill:#f9f9f9"
       d="m 20.811349,25.625712 c -1.253874,-0.670868 -2.020493,-2.069708 -1.811669,-3.305728 0.287692,-1.702832 1.900329,-3.390063 3.982036,-4.166226 0.788871,-0.294131 1.36877,-0.349577 2.645908,-0.252988 1.520469,0.114993 1.699144,0.08357 2.5381,-0.446417 0.496369,-0.313566 0.90266,-0.618483 0.902868,-0.677595 2.08e-4,-0.05911 -0.421288,-0.362173 -0.936659,-0.673468 -0.862234,-0.520808 -1.064882,-0.556323 -2.538479,-0.444875 -1.881911,0.142328 -3.052506,-0.206082 -4.602948,-1.369997 -1.255838,-0.942758 -1.924308,-2.121303 -1.944011,-3.42739 -0.01995,-1.3227808 0.558025,-2.2839463 1.762402,-2.9308278 0.81328,-0.4368196 1.164968,-0.4974964 2.433726,-0.4198905 3.100868,0.1896701 5.826348,2.5702893 5.826348,5.0891263 0,0.850816 0.06397,0.958785 0.819805,1.383586 l 0.819805,0.460756 4.000174,-2.250021 c 2.200095,-1.237512 4.387847,-2.4388542 4.861671,-2.6696492 l 0.861498,-0.4196273 1.108228,0.5615819 c 1.217332,0.6168686 1.493158,1.0099566 1.068078,1.5221466 -0.153733,0.185237 -1.741491,1.483015 -3.528353,2.883952 -1.786861,1.400937 -3.221025,2.630488 -3.18703,2.732335 0.03399,0.101848 1.587252,1.400877 3.451683,2.886731 2.348111,1.871324 3.389875,2.831775 3.389875,3.125289 0,0.299477 -0.348684,0.606224 -1.189066,1.046052 l -1.189069,0.622318 -4.839173,-2.677416 -4.839174,-2.677417 -0.804476,0.452141 c -0.723524,0.406643 -0.804944,0.538824 -0.809129,1.313563 -0.01416,2.621685 -2.723172,4.97983 -5.927629,5.159895 -1.141987,0.06417 -1.539044,-0.0092 -2.32534,-0.42994 z m 4.363233,-2.09027 c 1.659565,-0.854042 2.353728,-2.232998 1.595163,-3.168795 -0.365798,-0.451263 -0.590361,-0.515819 -1.783378,-0.512672 -1.142437,0.003 -1.53075,0.106602 -2.382599,0.635601 -2.481783,1.541188 -2.117322,3.820654 0.57996,3.627275 0.550243,-0.03945 1.446127,-0.301083 1.990854,-0.581409 l 0,0 z m 16.191127,-0.193564 c 0.461466,-0.235423 0.839028,-0.463534 0.839028,-0.506914 0,-0.199235 -6.822484,-5.421062 -7.082791,-5.421062 -0.355161,0 -2.451233,1.623982 -2.451233,1.899152 0,0.151546 7.527027,4.456864 7.791978,4.456864 0.03519,0 0.441552,-0.192618 0.903018,-0.42804 z M 30.573935,18.401004 c 0.219434,-0.130972 0.565893,-0.123896 0.978635,0.01999 0.618558,0.21563 0.793602,0.101823 5.486654,-3.567219 2.666243,-2.084476 4.876187,-3.922092 4.910989,-4.083592 0.03763,-0.174602 -0.285148,-0.433048 -0.796231,-0.637543 l -0.859509,-0.3439073 -5.187291,2.9121503 -5.187291,2.912151 -0.0017,0.762833 c -0.0015,0.688331 -0.10797,0.828878 -1.089567,1.439072 l -1.087842,0.67624 0.485876,0.517191 0.485875,0.517191 0.760867,-0.460903 c 0.418476,-0.253496 0.913729,-0.552139 1.10056,-0.663651 l -9e-6,0 z m -4.375164,-4.796912 c 1.281585,-0.487258 1.031884,-2.294336 -0.45003,-3.256858 -2.27797,-1.4795707 -5.096425,-1.0873165 -4.775819,0.664667 0.343943,1.879512 3.275559,3.333689 5.225849,2.592191 z"
       id="path3848"
       inkscape:connector-curvature="0"
       transform="scale(0.8,0.8)" />
  </g>
</svg>
